#!OML:ASF C:\ViconDB\ViconDB\414\Spring2016\041811\Spring2016.ASF
:FULLY-SPECIFIED
:DEGREES
423
root 7.58535 17.8364 -51.6896 -182.885 1.97979 -173.318
lowerback -7.0424 4.70392 -5.16924
upperback -1.07278 6.68744 0.673051
thorax 2.14894 3.32187 4.12703
lowerneck -6.43436 7.71289 0.332612
upperneck 38.9332 -1.35909 18.0202
head 14.7443 -0.514761 6.91353
rclavicle -5.82439e-014 1.59028e-014
rhumerus -101.066 35.0073 -136.232
rradius 82.4944
rwrist 14.949
rhand -52.0765 -12.9803
rfingers 7.12502
rthumb -24.5808 -41.4222
lclavicle -5.82439e-014 1.59028e-014
lhumerus -80.2146 -43.6987 115.906
lradius 83.1871
lwrist -27.3703
lhand -34.5482 -7.06725
lfingers 7.12502
lthumb -7.70875 22.7722
rfemur 134.65 400.472 -537.506
rtibia 23.8521
rfoot -778.903 -49.0677
rtoes -1.26413
lfemur -32.4102 -14.4068 -8.05349
ltibia 31.0676
lfoot -5.6003 -5.02812
ltoes -14.7394
424
root 7.546 17.8578 -51.9162 -182.777 2.23445 -173.935
lowerback -7.21989 4.7372 -5.54579
upperback -1.16434 6.78229 0.474143
thorax 2.12358 3.37294 4.14694
lowerneck -7.1656 7.86628 -1.07496
upperneck 39.679 -1.74216 19.4032
head 15.3334 -0.806079 7.88601
rclavicle -1.15295e-014 -1.27222e-014
rhumerus -100.444 34.8505 -135.698
rradius 82.2666
rwrist 15.3459
rhand -52.0584 -12.6596
rfingers 7.12502
rthumb -24.5635 -41.1038
lclavicle -1.15295e-014 -1.27222e-014
lhumerus -79.9375 -43.6859 115.457
lradius 83.4088
lwrist -27.1845
lhand -33.8631 -7.32114
lfingers 7.12502
lthumb -7.04741 22.5415
rfemur 136.147 397.126 -536.336
rtibia 23.0583
rfoot -774.747 -50.1366
rtoes -3.03666
lfemur -32.1683 -14.2899 -9.07249
ltibia 31.7228
lfoot -4.45229 -5.4437
ltoes -15.6189
425
root 7.50687 17.8677 -52.1509 -182.891 2.286 -174.589
lowerback -7.21684 4.6554 -5.80063
upperback -1.20977 6.70807 0.171923
thorax 2.09076 3.33964 3.9682
lowerneck -8.36519 8.28047 -3.29885
upperneck 40.7511 -2.29883 22.0586
head 16.3165 -1.26553 9.77441
rclavicle -1.39944e-013 3.65764e-014
rhumerus -99.7837 34.6863 -135.319
rradius 82.0289
rwrist 15.8444
rhand -51.876 -12.2257
rfingers 7.12502
rthumb -24.3886 -40.6936
lclavicle -1.39944e-013 3.65764e-014
lhumerus -79.9765 -43.7199 115.041
lradius 83.6435
lwrist -27.4278
lhand -33.4225 -7.49342
lfingers 7.12502
lthumb -6.6221 22.383
rfemur 136.757 394.133 -535.771
rtibia 22.6141
rfoot -770.755 -51.6437
rtoes -5.04828
lfemur -31.6078 -14.4496 -10.2187
ltibia 32.4609
lfoot -4.28717 -5.37206
ltoes -17.1427
426
root 7.46924 17.8681 -52.381 -183.128 2.29171 -175.212
lowerback -7.1415 4.63891 -6.13888
upperback -1.21804 6.72041 -0.0672641
thorax 2.02974 3.34898 3.89999
lowerneck -8.12089 8.27134 -3.16215
upperneck 40.8958 -2.47156 21.9889
head 16.38 -1.37903 9.69448
rclavicle -4.77083e-014 -5.08889e-014
rhumerus -98.8771 34.2432 -134.528
rradius 81.8395
rwrist 16.5544
rhand -51.7114 -12.0998
rfingers 7.12502
rthumb -24.2308 -40.5889
lclavicle -4.77083e-014 -5.08889e-014
lhumerus -80.3144 -44.0298 115.121
lradius 83.9504
lwrist -27.277
lhand -32.7538 -7.54667
lfingers 7.12502
lthumb -5.97651 22.349
rfemur 136.859 391.36 -535.44
rtibia 22.5101
rfoot -766.953 -53.6957
rtoes -7.24586
lfemur -31.0581 -14.1651 -11.4133
ltibia 33.3461
lfoot -4.6287 -5.32458
ltoes -16.418
427
root 7.4318 17.8679 -52.5996 -183.287 2.18638 -175.67
lowerback -6.98527 4.4753 -6.30637
upperback -1.27426 6.5143 -0.231461
thorax 1.90812 3.25421 3.79195
lowerneck -7.85803 8.37845 -3.02414
upperneck 41.1123 -2.41168 21.8046
head 16.4156 -1.39992 9.5885
rclavicle 5.24792e-014 -4.13472e-014
rhumerus -98.4478 34.0187 -134.128
rradius 81.9007
rwrist 17.3079
rhand -51.7518 -12.6076
rfingers 7.12502
rthumb -24.2696 -41.0914
lclavicle 5.24792e-014 -4.13472e-014
lhumerus -80.6942 -44.1137 115.08
lradius 84.088
lwrist -27.6239
lhand -32.8301 -7.35608
lfingers 7.12502
lthumb -6.05018 22.5375
rfemur 136.472 389.39 -535.323
rtibia 23.0432
rfoot -764.829 -56.3488
rtoes -11.4224
lfemur -30.7975 -14.0429 -12.2941
ltibia 34.4622
lfoot -5.44174 -5.14271
ltoes -16.7944
428
root 7.38421 17.8669 -52.8211 -183.527 2.2199 -176.09
lowerback -6.86867 4.34393 -6.2153
upperback -1.23743 6.33452 -0.423383
thorax 1.93325 3.16463 3.52603
lowerneck -7.76889 8.46521 -2.76737
upperneck 41.4533 -2.34271 21.3806
head 16.5657 -1.41409 9.3692
rclavicle 5.1684e-014 1.59028e-015
rhumerus -97.8006 33.826 -133.473
rradius 81.8705
rwrist 18.4143
rhand -51.56 -12.5678
rfingers 7.12502
rthumb -24.0857 -41.0761
lclavicle 5.1684e-014 1.59028e-015
lhumerus -80.9438 -44.214 114.869
lradius 84.2811
lwrist -27.3085
lhand -32.6533 -7.47868
lfingers 7.12502
lthumb -5.8795 22.4197
rfemur 135.45 387.788 -535.582
rtibia 24.1937
rfoot -763.223 -59.9648
rtoes -13.8034
lfemur -30.3004 -14.0118 -13.1934
ltibia 35.5695
lfoot -6.61576 -5.00557
ltoes -15.4994
429
root 7.34093 17.8269 -53.0207 -183.702 1.97183 -176.351
lowerback -6.66105 4.13368 -6.07228
upperback -1.22269 6.03435 -0.531037
thorax 1.89071 3.01752 3.3017
lowerneck -7.72259 8.58404 -2.55992
upperneck 41.8078 -2.24273 21.0383
head 16.7309 -1.41222 9.21058
rclavicle -4.39314e-014 3.65764e-014
rhumerus -97.4233 33.7224 -132.982
rradius 82.1818
rwrist 18.8839
rhand -51.3233 -12.4112
rfingers 7.12502
rthumb -23.8587 -40.9494
lclavicle -4.39314e-014 3.65764e-014
lhumerus -81.3687 -44.4022 114.872
lradius 84.4676
lwrist -27.0041
lhand -32.5326 -7.31881
lfingers 7.12502
lthumb -5.76293 22.5828
rfemur 133.879 386.741 -535.801
rtibia 26.1238
rfoot -761.973 -64.0449
rtoes -16.4134
lfemur -30.1013 -13.5523 -13.9807
ltibia 36.6591
lfoot -7.69924 -5.5916
ltoes -11.8762
430
root 7.29208 17.826 -53.222 -183.828 1.88866 -176.754
lowerback -6.50748 3.98562 -6.06721
upperback -1.20656 5.82701 -0.553962
thorax 1.84539 2.91539 3.25073
lowerneck -7.80107 8.63572 -2.54289
upperneck 42.2779 -2.1363 20.5386
head 16.9852 -1.44666 9.03699
rclavicle 3.08116e-014 3.49861e-014
rhumerus -96.9608 34.1645 -132.326
rradius 82.5196
rwrist 18.5905
rhand -52.3935 -16.1637
rfingers 7.12502
rthumb -24.8847 -44.5639
lclavicle 3.08116e-014 3.49861e-014
lhumerus -81.7935 -44.6728 115.145
lradius 84.6011
lwrist -26.6417
lhand -32.5604 -7.15576
lfingers 7.12502
lthumb -5.78976 22.7451
rfemur 132.018 385.971 -536.356
rtibia 28.722
rfoot -761.576 -68.5098
rtoes -19.0504
lfemur -29.6841 -13.037 -14.922
ltibia 37.5079
lfoot -8.47007 -6.47876
ltoes -12.3744
431
root 7.23577 17.8426 -53.4259 -183.893 2.03993 -177.1
lowerback -6.46666 3.77969 -5.71941
upperback -1.23629 5.5364 -0.747945
thorax 1.87296 2.77454 2.83935
lowerneck -7.73034 8.87073 -2.12578
upperneck 42.7217 -1.86777 20.0173
head 17.1693 -1.36801 8.77306
rclavicle 9.85972e-014 1.90833e-014
rhumerus -96.3567 34.1192 -131.928
rradius 82.5804
rwrist 19.4977
rhand -52.2395 -17.03
rfingers 7.12502
rthumb -24.7371 -45.4505
lclavicle 9.85972e-014 1.90833e-014
lhumerus -82.3191 -44.6329 114.918
lradius 84.7723
lwrist -26.235
lhand -32.4739 -6.96504
lfingers 7.12502
lthumb -5.70624 22.9381
rfemur 130.661 384.007 -536.03
rtibia 31.4358
rfoot -758.728 -72.5537
rtoes -22.5376
lfemur -29.2163 -12.6722 -15.7548
ltibia 38.2786
lfoot -9.50285 -6.92577
ltoes -11.3207
